<?xml version="1.0" encoding="UTF-8"?><svg id="Layer_2" xmlns="http://www.w3.org/2000/svg" viewBox="0 0 621.73 103.67"><defs><style>.cls-1{fill:#c6af83;}</style></defs><g id="Layer_1-2"><path class="cls-1" d="M249.23,3.98v66.43h-12.34V20.68l-19.14,49.72h-7.21l-22.62-50.96v50.96h-6.88V3.98h12.84l22.62,51.53L236.47,3.98h12.76Z"/><path class="cls-1" d="M312.45,3.98h28.5c4.81,0,9.03.65,12.68,1.95,3.65,1.3,6.48,3.13,8.49,5.5,2.02,2.37,3.02,5.14,3.02,8.3,0,3.73-1.31,7.02-3.94,9.87-2.62,2.85-6.15,4.87-10.56,6.07,11.98,1.71,17.98,7.24,17.98,16.61,0,5.82-2.22,10.3-6.67,13.43-4.45,3.13-10.78,4.7-19.01,4.7h-30.49V3.98ZM337.8,33.21c4.92,0,8.68-1.09,11.31-3.27,2.62-2.18,3.94-5.39,3.94-9.63,0-3.61-1.28-6.32-3.85-8.16-2.57-1.83-6.28-2.75-11.14-2.75h-13.34v23.82h13.09ZM343.77,65c4.03,0,7.14-1.12,9.32-3.37,2.18-2.24,3.27-5.52,3.27-9.82s-1.63-7.56-4.89-9.77c-3.26-2.21-7.98-3.32-14.17-3.32h-12.59v26.28h19.06Z"/><path class="cls-1" d="M417.92,53.42h-30.82l-7.21,16.99h-8.45L401.6,3.03h7.46l28.42,67.38h-12.59l-6.96-16.99ZM415.68,48.01l-12.84-31.41-13.42,31.41h26.26Z"/><path class="cls-1" d="M443.69,3.98h52.11v5.41h-39.85v22.68h35.21v5.41h-35.21v27.52h39.85v5.41h-52.11V3.98Z"/><path class="cls-1" d="M497.37,3.98h13.17l21.79,52.38,23.03-52.38h8.12l-29.58,67.38h-7.54L497.37,3.98Z"/><path class="cls-1" d="M573.31,65.57c-5.16-3.86-7.91-9.3-8.24-16.32h9.94c.33,5.82,2.06,10.06,5.18,12.72,3.12,2.66,7.75,3.98,13.88,3.98,5.14,0,8.99-1.04,11.56-3.13,2.57-2.09,3.85-5.12,3.85-9.11,0-2.21-.47-4.11-1.41-5.69-.94-1.58-2.68-3-5.22-4.27-2.54-1.26-6.19-2.44-10.94-3.51-7.46-1.71-13.55-4.05-18.27-7.02-4.72-2.97-7.08-7.27-7.08-12.91,0-6.2,2.49-10.61,7.46-13.24,4.97-2.62,11.38-3.94,19.22-3.94,8.51,0,15,1.65,19.47,4.93,4.47,3.29,6.96,7.75,7.46,13.38h-9.78c-.77-4.62-2.62-7.92-5.55-9.92-2.93-1.99-6.96-2.99-12.1-2.99-4.7,0-8.2.9-10.52,2.7-2.32,1.8-3.48,4.16-3.48,7.07,0,1.65.41,3.1,1.24,4.37.83,1.27,2.44,2.47,4.85,3.61,2.4,1.14,5.9,2.28,10.48,3.42,6.13,1.52,11.02,3.07,14.66,4.65s6.52,3.8,8.62,6.64c2.1,2.85,3.15,6.58,3.15,11.2,0,3.99-1.13,7.42-3.4,10.3-2.27,2.88-5.47,5.08-9.61,6.6-4.14,1.52-8.98,2.28-14.5,2.28-8.78,0-15.76-1.93-20.92-5.79Z"/><path class="cls-1" d="M303.66,70.41l-9.02-9.2c-3.23,3.54-6.68,6.15-10.34,7.83-3.67,1.68-7.81,2.51-12.43,2.51s-8.35-.84-11.77-2.51-6.07-4.03-7.97-7.07c-1.9-3.04-2.85-6.55-2.85-10.53,0-4.68,1.33-8.76,3.99-12.24,2.66-3.48,6.55-6.2,11.67-8.16-2.21-2.47-3.83-4.76-4.84-6.88-1.01-2.12-1.52-4.41-1.52-6.88,0-4.24,1.52-7.67,4.56-10.3,3.04-2.62,7.08-3.94,12.15-3.94,4.74,0,8.6,1.36,11.58,4.08,2.97,2.72,4.37,6.26,4.17,10.63h-6.64c.06-2.85-.81-5.09-2.61-6.74-1.8-1.64-4.07-2.47-6.78-2.47-2.91,0-5.27.81-7.07,2.42s-2.7,3.69-2.7,6.22c0,2.03.55,3.99,1.66,5.88,1.11,1.9,2.86,4.14,5.27,6.74l21.83,22.11c.88-1.2,2.09-3.1,3.61-5.69l6.07-10.15h7.12l-7.21,12.43c-1.71,2.97-3.42,5.63-5.12,7.97l13.85,13.95h-8.64ZM281.88,63.58c2.94-1.46,5.74-3.73,8.4-6.83l-21.16-21.45c-8.79,3.23-13.19,8.54-13.19,15.94,0,2.78.68,5.27,2.04,7.45,1.36,2.18,3.24,3.91,5.65,5.17,2.4,1.27,5.16,1.9,8.26,1.9,3.73,0,7.07-.73,10.01-2.18Z"/><path class="cls-1" d="M181.04,100.39v-13.85h7.29c.94,0,1.73.17,2.35.52s1.09.82,1.4,1.43c.31.61.46,1.32.46,2.11,0,.96-.22,1.78-.65,2.46-.43.69-1.02,1.18-1.78,1.47l2.91,5.86h-2.1l-2.71-5.51h-5.27v5.51h-1.92ZM182.96,93.24h5.19c.77,0,1.37-.24,1.81-.71.44-.47.66-1.12.66-1.94,0-.51-.09-.94-.28-1.29-.19-.35-.47-.62-.83-.82-.36-.2-.81-.29-1.35-.29h-5.19v5.05Z"/><path class="cls-1" d="M201.78,100.39v-13.85h10.66v1.66h-8.75v4.28h7.86v1.66h-7.86v4.6h8.87v1.66h-10.78Z"/><path class="cls-1" d="M219.92,100.39l5.47-13.85h2.52l5.49,13.85h-2.08l-1.35-3.43h-6.75l-1.33,3.43h-1.98ZM223.86,95.32h5.47l-1.68-4.34c-.04-.12-.1-.29-.18-.5s-.17-.45-.26-.72c-.09-.26-.19-.53-.28-.81s-.18-.53-.26-.76h-.12c-.09.27-.2.58-.32.93-.12.35-.24.69-.36,1.02-.12.33-.22.61-.3.84l-1.7,4.34Z"/><path class="cls-1" d="M241.35,100.39v-13.85h1.92v12.18h6.89v1.68h-8.81Z"/><path class="cls-1" d="M268.51,100.39v-13.85h10.66v1.66h-8.75v4.28h7.86v1.66h-7.86v4.6h8.87v1.66h-10.78Z"/><path class="cls-1" d="M293.33,100.63c-.75,0-1.48-.07-2.17-.22-.69-.15-1.31-.39-1.85-.72-.54-.33-.97-.76-1.28-1.28-.32-.52-.47-1.17-.47-1.94,0-.07,0-.13.01-.2s.01-.13.01-.2h1.94s0,.1-.01.19c0,.09-.01.17-.01.23,0,.54.16,1,.48,1.37.32.38.77.66,1.34.84.57.18,1.22.27,1.95.27.32,0,.66-.02,1.02-.06.36-.04.7-.11,1.03-.21.33-.1.63-.24.89-.4.26-.17.47-.38.63-.63.16-.25.23-.56.23-.92,0-.46-.13-.84-.39-1.14-.26-.3-.61-.55-1.04-.75-.43-.19-.92-.37-1.46-.52s-1.11-.31-1.69-.45c-.58-.15-1.14-.32-1.69-.52-.55-.19-1.03-.44-1.46-.73-.43-.29-.78-.65-1.04-1.08-.26-.43-.39-.96-.39-1.58,0-.58.12-1.1.35-1.55.24-.46.59-.84,1.05-1.16.46-.32,1.04-.56,1.73-.73s1.47-.25,2.36-.25c.73,0,1.4.08,2.03.23.63.16,1.18.39,1.66.71.48.32.85.72,1.12,1.2.27.48.4,1.07.4,1.76v.24h-1.9v-.3c0-.46-.14-.85-.42-1.17-.28-.32-.67-.57-1.16-.75s-1.05-.26-1.67-.26c-.81,0-1.48.08-2.02.23-.54.16-.94.38-1.2.67-.26.29-.39.62-.39.98,0,.42.13.77.39,1.05.26.28.61.52,1.04.7.43.18.92.35,1.47.5.55.15,1.11.3,1.69.45.57.16,1.13.33,1.68.53.55.19,1.04.44,1.47.73.44.29.78.65,1.04,1.09.26.44.38.97.38,1.61,0,.98-.24,1.78-.73,2.39-.48.61-1.15,1.06-2,1.34-.85.28-1.83.42-2.95.42Z"/><path class="cls-1" d="M311.28,100.39v-12.18h-4.75v-1.68h11.45v1.68h-4.79v12.18h-1.92Z"/><path class="cls-1" d="M322.84,100.39l5.47-13.85h2.52l5.49,13.85h-2.08l-1.35-3.43h-6.75l-1.33,3.43h-1.98ZM326.77,95.32h5.47l-1.68-4.34c-.04-.12-.1-.29-.18-.5s-.17-.45-.26-.72c-.09-.26-.19-.53-.28-.81s-.18-.53-.26-.76h-.12c-.09.27-.2.58-.32.93-.12.35-.24.69-.36,1.02-.12.33-.22.61-.3.84l-1.7,4.34Z"/><path class="cls-1" d="M345.9,100.39v-12.18h-4.75v-1.68h11.45v1.68h-4.79v12.18h-1.92Z"/><path class="cls-1" d="M360.8,100.39v-13.85h10.66v1.66h-8.75v4.28h7.86v1.66h-7.86v4.6h8.87v1.66h-10.78Z"/><path class="cls-1" d="M56.6,11.37c19.47-7.46,47.85-13.64,66.9-2.85,8.6,5.05,11.9,14.06,9.52,23.62-3.21,12.41-12.43,22.67-22.02,30.95-22.47,18.91-61.27,35.22-90.61,27.06C1.52,84.34-.98,68.22,7.78,52.2c4.76-8.74,9.09-14.04,16.53-20.63C11.54,41.26.04,53.71,0,70.79c.58,20.2,22.76,26.61,39.63,25.99,32.41-.95,69.1-18.87,88.73-44.84,11.11-14.92,15.87-35.63-2.99-46.61-20.23-10.79-49.24-3.38-68.77,6.04h0Z"/><path class="cls-1" d="M140.18,40.75c-2.55,11.12-11.71,20.8-19.83,28.41-8.66,7.81-18.38,14.53-28.96,19.44-13.28,6.09-27.52,10.23-41.96,12.52-7.22,1.04-14.65,1.76-21.88.48-1.44-.27-2.87-.65-4.24-1.22,5.3,2.81,11.54,3.21,17.44,3.29,35.52-.89,72.44-16.41,92.81-46.45,3.22-4.98,6.08-10.48,6.63-16.46h0Z"/><path class="cls-1" d="M28.74,10.71v76.15c2.09.21,4.25.31,6.45.31,3.8,0,7.67-.3,11.54-.86V14.59s9.66,5.65,9.66,5.65v64.18c6.12-1.52,12.18-3.59,17.99-6.04V20.27s9.66,5.65,9.66,5.65v47.94c6.6-3.4,12.69-7.19,17.99-11.1V25.91s9.66,5.66,9.66,5.66v23.28s3.91-4.12,3.91-4.12v-20.81s-3.91-2.2-3.91-2.2v-.03l-9.66-5.65h-17.99s0,.01,0,.01l-9.66-5.65h-17.99v-.03l-9.66-5.66h-17.99Z"/></g></svg>