<?xml version="1.0" encoding="UTF-8"?><svg id="Layer_2" xmlns="http://www.w3.org/2000/svg" viewBox="0 0 229.84 169.98"><defs><style>.cls-1{fill:#c6af83;}</style></defs><g id="Layer_1-2"><path class="cls-1" d="M92.8,18.65c31.93-12.24,78.45-22.36,109.69-4.67,14.11,8.27,19.5,23.06,15.61,38.72-5.26,20.34-20.37,37.17-36.1,50.74-36.84,31.01-100.45,57.75-148.57,44.37C2.5,138.29-1.61,111.85,12.76,85.58c7.81-14.34,14.91-23.02,27.1-33.83C18.92,67.65.06,88.07,0,116.07c.95,33.12,37.31,43.63,64.97,42.61,53.15-1.55,113.3-30.94,145.49-73.52,18.22-24.47,26.03-58.41-4.91-76.42-33.18-17.68-80.74-5.54-112.75,9.9h0Z"/><path class="cls-1" d="M229.84,66.82c-4.18,18.23-19.21,34.1-32.51,46.58-14.2,12.8-30.14,23.83-47.49,31.87-21.77,9.99-45.13,16.77-68.8,20.52-11.84,1.71-24.01,2.88-35.88.78-2.36-.45-4.71-1.07-6.95-2,8.69,4.61,18.91,5.26,28.59,5.4,58.25-1.45,118.78-26.91,152.17-76.16,5.28-8.16,9.96-17.19,10.87-27h0Z"/><path class="cls-1" d="M47.12,17.55v124.86c3.43.34,6.96.51,10.58.51,6.24,0,12.58-.5,18.93-1.41V23.92s15.83,9.27,15.83,9.27v105.23c10.04-2.5,19.97-5.89,29.49-9.9V33.23s15.83,9.27,15.83,9.27v78.61c10.82-5.57,20.81-11.8,29.49-18.2v-60.43s15.83,9.28,15.83,9.28v38.17s6.41-6.75,6.41-6.75v-34.13s-6.41-3.61-6.41-3.61v-.04l-15.83-9.27h-29.49s0,.02,0,.02l-15.83-9.27h-29.49v-.04l-15.83-9.28h-29.5Z"/></g></svg>